<svg xmlns="http://www.w3.org/2000/svg" viewBox="0 0 40 40"><path fill="#fff" d="M20,15a5,5,0,1,0,5,5A5,5,0,0,0,20,15Z"></path><path fill="#fff" d="M34.91,13.82c-.24-5.45-3.27-8.48-8.72-8.73C24.58,5,24.07,5,20,5s-4.58,0-6.18.09c-5.45.25-8.48,3.27-8.73,8.72C5,15.42,5,15.93,5,20s0,4.58.09,6.18c.25,5.45,3.27,8.48,8.72,8.73C15.42,35,15.93,35,20,35s4.58,0,6.19-.09c5.44-.25,8.47-3.27,8.72-8.73C35,24.58,35,24.07,35,20S35,15.42,34.91,13.82ZM20,27.7A7.7,7.7,0,1,1,27.7,20,7.7,7.7,0,0,1,20,27.7Zm8-13.91a1.8,1.8,0,1,1,1.8-1.8A1.79,1.79,0,0,1,28,13.79Z"></path></svg>