<svg xmlns="http://www.w3.org/2000/svg" viewBox="0 0 40 40"><path fill="#fff" d="M32,14.47A18.92,18.92,0,0,1,26.7,28.13C22.14,32.76,15,32.62,15,32.62c-6.93,0-10-2.51-10-2.51,5.94.11,8.8-2.53,8.8-2.53-5.37-.64-6-4-6-4,3.21.94,5,0,5,0-7.13-2.73-7-7.16-7-7.16a9.49,9.49,0,0,0,3,1c-2.13-1.59-2.95-3.37-2.95-5a5.71,5.71,0,0,1,1-3c.9.88,3.91,5.15,13.07,5a6.08,6.08,0,0,1,6.05-7.06c2.95,0,4.8,2.81,4.8,2.81A18.73,18.73,0,0,0,34,8.41a9.72,9.72,0,0,1-3,4,20.41,20.41,0,0,0,4-1.23A15.48,15.48,0,0,1,32,14.47Z"></path></svg>